<svg xmlns="http://www.w3.org/2000/svg" viewBox="0 0 17 17"><path d="M16.647 2.223c-.07-.495-.212-.92-.566-1.273-.353-.354-.848-.566-1.273-.566-.424 0-.919.212-1.272.566L12.05 2.435c-1.768-.778-3.89-.495-5.304.919l-1.909 1.91c-.424.423-.92.635-1.556.565-.565 0-1.13-.283-1.555-.707l-.424.424-.849.848 10.182 10.183.425-.424.424-.425.424-.424c-.92-.92-.92-2.333-.141-3.111l1.909-1.91c1.414-1.414 1.697-3.535.92-5.303l1.484-1.485c.354-.353.566-.848.566-1.272zm-3.819 7.212l-1.909 1.91c-.778.777-1.06 1.908-.848 2.97L2.717 6.96c.212.07.353.07.636.07.92.072 1.768-.353 2.404-.99l1.839-1.838c1.343-1.343 3.677-1.272 5.091.142 1.414 1.414 1.556 3.677.141 5.091zm2.405-6.788L13.889 3.99c-.141-.141-.212-.353-.353-.495-.142-.141-.283-.283-.495-.353l1.343-1.344c.141-.141.283-.141.424-.141.212-.07.283 0 .425.141s.212.212.212.354c-.071.212-.071.353-.212.495z" fill="#007dea"/><path d="M6.323 15.658a2.342 2.342 0 01-1.697-.708 2.342 2.342 0 01-.707-1.697c0-.707.283-1.272.707-1.697l.849.849c-.213.212-.354.495-.283.848 0 .283.07.637.283.849.424.424 1.272.424 1.697 0l.848.848c-.424.425-1.06.637-1.697.708z" fill="#005fa6"/></svg>