<svg version="1.1" id="Layer_1" xmlns="http://www.w3.org/2000/svg" x="0" y="0" viewBox="0 0 19 19" xml:space="preserve"><style>.st1{fill:#007dea}</style><g id="Page-1"><g id="Gibraltar-Icons" transform="translate(-787 -308)"><g id="Group" transform="translate(400 233)"><g id="Icon-and-Name-Copy-2" transform="translate(384 71)"><g id="Icon_x2F_Audio"><path d="M13.5 22.7l-5.2-5.2H3.5v-8h4.8l5.2-5.2v18.4zm-9-6.2h4.2l3.8 3.8V6.7l-3.8 3.8H4.5v6z" fill="#005fa6" id="Combined-Shape"/><path class="st1" d="M15 17v-1c1.4 0 2.5-1.1 2.5-2.5S16.4 11 15 11v-1c1.9 0 3.5 1.6 3.5 3.5S16.9 17 15 17z" id="Path"/><path class="st1" d="M15 15v-1c.3 0 .5-.2.5-.5s-.2-.5-.5-.5v-1c.8 0 1.5.7 1.5 1.5S15.8 15 15 15z" id="Path-Copy-2"/><path class="st1" d="M15 20v-1c3 0 5.5-2.5 5.5-5.5S18 8 15 8V7c3.6 0 6.5 2.9 6.5 6.5S18.6 20 15 20z" id="Path-Copy"/></g></g></g></g></g></svg>