<svg version="1.1" id="Layer_1" xmlns="http://www.w3.org/2000/svg" x="0" y="0" viewBox="0 0 24 24" xml:space="preserve"><style>.st0{fill:#007dea}.st3{fill:#fff}</style><g id="Page-1"><g id="Gibraltar-Icons" transform="translate(-400 -355)"><g id="Group_1_" transform="translate(400 233)"><g id="Icon-and-Name-Copy-6" transform="translate(0 122)"><g id="Icon_x2F_DOC"><g id="Group" transform="translate(3)"><path class="st0" d="M17.5 6H12V.5h1V5h4.5z" id="Path"/><path class="st0" d="M18 24H0V0h13.2L18 4.7V24zM1 23h16V5.1L12.8 1H1v22z" id="Shape"/></g><path fill="#165fa1" d="M0 8h24v10H0z" id="Rectangle"/><path class="st3" d="M7.9 12.5c0 1.5-1 2.5-2.6 2.5H3.5v-4.9h1.8c1.6 0 2.6 1 2.6 2.4zM5.2 14c.9 0 1.4-.5 1.4-1.4s-.5-1.4-1.4-1.4h-.5V14h.5zM11.9 15c-1.4 0-2.5-1-2.5-2.5s1.1-2.5 2.5-2.5 2.5 1 2.5 2.5-1.1 2.5-2.5 2.5zm0-1c.8 0 1.3-.6 1.3-1.4 0-.9-.5-1.4-1.3-1.4s-1.3.6-1.3 1.4c0 .8.5 1.4 1.3 1.4zM18.3 10c1.2 0 2.1.7 2.3 1.7h-1.3c-.2-.4-.6-.6-1-.6-.7 0-1.2.5-1.2 1.4 0 .9.5 1.4 1.2 1.4.5 0 .8-.2 1-.6h1.3c-.3 1.1-1.2 1.7-2.3 1.7-1.5 0-2.5-1-2.5-2.5 0-1.4 1.1-2.5 2.5-2.5z"/></g></g></g></g></g></svg>