<svg version="1.1" id="Layer_1" xmlns="http://www.w3.org/2000/svg" x="0" y="0" viewBox="0 0 170 22" xml:space="preserve"><style>.st0{fill:#fff}</style><g id="Page-1"><g id="Gibraltar-Header_Footer" transform="translate(-399 -375)"><g id="Header_x2F_Desktop_x2F_Black_x5F_v2" transform="translate(0 300)"><g id="Logo_x2F_Gibraltar_x2F_Wordmark_x5F_Only_x2F_White" transform="translate(398 70)"><g id="Gilbraltar_Wordmark_White" transform="translate(1.368 5.268)"><path id="Path" class="st0" d="M11.4 10.6h8.1v.6c0 1.3-.2 2.6-.5 3.9-.4 1.1-.9 2.1-1.7 2.9-1.7 2-4.3 3.1-6.9 3.1-2.7 0-5.2-1-7-3C1.5 16.2.4 13.6.5 11c-.1-2.7 1-5.3 3-7.2 1.9-1.9 4.5-3 7.3-3 1.5 0 3 .3 4.3.9 1.4.8 2.7 1.8 3.7 3l-2.1 2c-1.7-2-3.7-3.1-6-3.1-2-.1-3.9.7-5.2 2.1C4.1 7.2 3.3 9.1 3.4 11c-.1 2.1.8 4 2.3 5.4 1.3 1.2 3 1.9 4.8 2 1.4 0 2.8-.5 3.9-1.5 1.1-.9 1.8-2.2 2-3.5h-4.9v-2.8z"/><path id="Path_1_" class="st0" d="M31.1 1.2v19.6h-2.9V1.2z"/><path id="Shape" class="st0" d="M40.8 20.8V1.2h2.9c1.1 0 2.1.1 3.1.3.7.2 1.4.5 2 1 .6.5 1 1.2 1.3 1.9.3.7.5 1.5.5 2.3 0 1.4-.6 2.7-1.6 3.6 1 .3 1.9 1 2.5 1.9.6.9.9 2 .9 3.1 0 1.5-.6 2.9-1.6 3.9-.6.6-1.4 1.1-2.2 1.4-1.1.3-2.2.4-3.3.4h-4.5zm2.9-11.2h.9c1.1 0 1.9-.2 2.4-.7.6-.6.8-1.4.8-2.1.1-.8-.2-1.5-.8-2.1-.6-.5-1.5-.8-2.3-.7h-1v5.6zm0 8.4h1.8c1.3 0 2.3-.3 2.9-.8.6-.5 1-1.3 1-2.2 0-.8-.3-1.6-1-2.1-.6-.6-1.7-.9-3.3-.9h-1.5v6z"/><path id="Shape_1_" class="st0" d="M66.8 12.4l6.1 8.3h-3.6l-5.6-8h-.5v8h-2.9V1.2h3.5c2.6 0 4.5.5 5.6 1.5 1.3 1.1 2 2.6 1.9 4.3 0 1.3-.4 2.5-1.2 3.6-.9.9-2 1.6-3.3 1.8zm-3.7-2.2h.9c2.8 0 4.2-1.1 4.2-3.2 0-2-1.4-3-4.1-3H63v6.2z"/><path id="Shape_2_" class="st0" d="M90.7 16h-8.4l-2.2 4.7H77L86.7 0 96 20.8h-3.2L90.7 16zm-1.2-2.7l-2.9-6.6-3 6.6h5.9z"/><path id="Path_2_" class="st0" d="M106.3 1.2V18h5.8v2.8h-8.7V1.2z"/><path id="Path_3_" class="st0" d="M124.2 4v16.8h-2.9V4h-4.6V1.2h12V4z"/><path id="Shape_3_" class="st0" d="M145.7 16h-8.4l-2.2 4.7H132L141.6 0l9.4 20.8h-3.2l-2.1-4.8zm-1.2-2.7l-2.9-6.6-3 6.6h5.9z"/><path id="Shape_4_" class="st0" d="M163.2 12.4l6.1 8.3h-3.6l-5.6-8h-.5v8h-3V1.2h3.5c2.6 0 4.5.5 5.6 1.5 1.3 1.1 2 2.6 1.9 4.3 0 1.3-.4 2.6-1.2 3.6-.8.9-1.9 1.6-3.2 1.8zm-3.7-2.2h.9c2.8 0 4.2-1.1 4.2-3.2 0-2-1.4-3-4.1-3h-1.1v6.2z"/></g></g></g></g></g></svg>