<svg version="1.1" id="Layer_1" xmlns="http://www.w3.org/2000/svg" x="0" y="0" viewBox="0 0 250 122" xml:space="preserve"><style>.st0{fill:#fff}</style><path class="st0" d="M173.1 38.7L142.4.2 76.9 38.7l65.5-21.2z"/><path class="st0" d="M142.4 24.1L81.9 43.2l60.5-10.1 30.7 11.8zM16.6 79h7.3c-.2 2.1-1.3 4-2.9 5.3-1.6 1.5-3.6 2.2-5.8 2.2-2.7-.1-5.1-1-7-2.9-2.3-2-3.5-4.9-3.5-8-.1-3 1-5.7 3.1-7.8 2-2.1 4.8-3.2 7.7-3.2 3.4 0 6.3 1.6 8.7 4.8l3.1-3c-1.6-1.9-3.4-3.4-5.5-4.5-2-.9-4.2-1.4-6.3-1.4-4-.1-7.9 1.5-10.7 4.4-5.8 5.9-5.9 15.4-.1 21.4 2.7 2.8 6.5 4.5 10.4 4.4 3.9.1 7.7-1.6 10.3-4.6 1.2-1.2 2-2.7 2.5-4.4.5-1.9.8-3.8.8-5.8v-1H16.6V79zM41.4 60.8h4.4v29.1h-4.4zM74.7 87.4c2.8-2.8 3.2-7.1 1-10.3-.9-1.3-2.1-2.3-3.6-2.8 1.5-1.3 2.4-3.2 2.4-5.3 0-1.2-.3-2.3-.8-3.4-.4-1-1.1-2-1.9-2.8-.9-.7-1.8-1.2-2.9-1.5-1.5-.3-3.1-.5-4.6-.5H60V90h6.6c1.6.1 3.3-.1 4.9-.5 1.2-.5 2.3-1.2 3.2-2.1zM64.4 64.9H66c1.2-.1 2.4.3 3.3 1 .8.8 1.2 2 1.2 3.1.1 1.2-.3 2.3-1.2 3.2-.8.8-2 1.1-3.6 1.1h-1.4l.1-8.4zM67 85.8h-2.7V77h2.2c2.4 0 4 .5 4.9 1.3.9.8 1.4 1.9 1.4 3.1.1 1.2-.5 2.4-1.4 3.2-1 .8-2.4 1.2-4.4 1.2zM103.1 74.7c1.2-1.5 1.8-3.4 1.8-5.3.1-2.4-1-4.8-2.8-6.4-1.7-1.5-4.4-2.1-8.3-2.1h-5.1V90H93V78.1h.8L102 90h5.3l-8.9-12.4c1.8-.4 3.5-1.4 4.7-2.9zm-8.8-.4H93V65h1.6c4 0 6 1.5 6 4.5-.1 3.2-2.1 4.8-6.3 4.8zM113.5 90h4.7l3.2-7.1h12.4l3.1 7.1h4.8l-13.9-31-14.3 31zm9.7-11.2l4.5-9.9 4.3 9.9h-8.8zM156.8 60.8h-4.4v29.1h12.8v-4.1h-8.4zM172.2 65h6.6v25h4.4V65h6.6v-4.1h-17.6zM194.6 90h4.7l3.2-7.1h12.4L218 90h4.7l-13.8-31-14.3 31zm9.7-11.2l4.5-9.9 4.3 9.9h-8.8zM240.7 77.6c1.8-.3 3.5-1.3 4.7-2.8 1.2-1.6 1.8-3.4 1.7-5.3.1-2.4-1-4.8-2.8-6.4-1.7-1.5-4.5-2.1-8.3-2.1h-5.1v29h4.4V78.1h.8l8.3 11.9h5.3l-9-12.4zm-5.4-3.3l-.1-9.2h1.6c4 0 6.1 1.5 6.1 4.5 0 3.2-2 4.8-6.2 4.8h-1.4zM60 108h2v13.2h-2zM76.5 117.2l-6.1-9.2h-1.9v13.2h2.1v-9.3l6 9.3h1.9V108h-2zM89.6 108H85v13.2h4.6c1.4 0 2.6-.4 3.4-1.2 1.4-1.5 1.3-3.5 1.3-5.5 0-1.9.1-3.8-1.3-5.3-.8-.8-2-1.2-3.4-1.2zm2 10.6c-.6.6-1.3.9-2.3.9H87v-9.6h2.4c1 0 1.7.2 2.3.9.7.8.7 2.1.7 3.9s-.1 3.1-.8 3.9zM107.6 116.6c0 1.7-1.1 2.8-2.7 2.8s-2.7-1.1-2.7-2.8V108h-2v8.8c0 2.7 2.1 4.6 4.7 4.6s4.7-1.9 4.7-4.6V108h-2v8.6zM120.6 113.7l-1.5-.2c-.6-.1-1.2-.3-1.5-.6s-.5-.8-.5-1.2c0-1.2.9-2.1 2.4-2.1 1.2 0 2.1.3 2.9 1l1.3-1.3c-1.2-1-2.4-1.5-4.1-1.5-2.7 0-4.4 1.6-4.4 3.9 0 1.1.3 1.9 1 2.6.6.5 1.4.9 2.5 1l1.6.2c.8.1 1.1.3 1.4.6.3.3.5.8.5 1.4 0 1.3-1 2-2.7 2-1.3 0-2.4-.3-3.3-1.3l-1.3 1.3c1.3 1.3 2.7 1.7 4.7 1.7 2.7 0 4.7-1.5 4.7-3.9 0-1.2-.4-2.1-1.1-2.7-.7-.4-1.4-.7-2.6-.9zM128.8 109.8h3.6v11.4h2v-11.4h3.6V108h-9.2zM152.6 111.8c0-2.3-1.6-3.9-4.1-3.9h-5.1v13.2h2v-5.6h2.5l2.8 5.6h2.3l-3-5.9c1.4-.3 2.6-1.4 2.6-3.4zm-7.2 2.1v-4.1h2.9c1.3 0 2.2.8 2.3 2 0 1.3-.9 2.1-2.3 2.1h-2.9zM158.6 108h2v13.2h-2zM167.1 121.2h8.5v-1.8h-6.4v-4h5.4v-1.8h-5.4v-3.8h6.4V108h-8.5zM186 113.7l-1.5-.2c-.6-.1-1.2-.3-1.5-.6s-.5-.8-.5-1.2c0-1.2.9-2.1 2.4-2.1 1.2 0 2.1.3 2.9 1l1.3-1.3c-1.2-1-2.4-1.5-4.1-1.5-2.7 0-4.4 1.6-4.4 3.9 0 1.1.3 1.9 1 2.6.6.5 1.4.9 2.5 1l1.6.2c.8.1 1.1.3 1.4.6.3.3.5.8.5 1.4 0 1.3-1 2-2.7 2-1.3 0-2.4-.3-3.3-1.3l-1.3 1.3c1.3 1.3 2.7 1.7 4.7 1.7 2.8 0 4.7-1.5 4.7-3.9 0-1.2-.4-2.1-1.1-2.7-.7-.4-1.4-.7-2.6-.9z"/></svg>