<svg version="1.1" id="Layer_1" xmlns="http://www.w3.org/2000/svg" x="0" y="0" width="250" height="122" viewBox="0 0 250 122" xml:space="preserve"><style>.st0{fill:#0e5fa9}</style><g id="Press-Resources"><g id="T11-Press-Resources" transform="translate(-835 -963)"><g id="Color-Logo" transform="translate(784 886)"><g id="Logo_x2F_Gibraltar_x2F_Full_x2F_Color" transform="translate(49 76)"><g id="Gilbraltar_Logo_Combined_V2_Color" transform="translate(1.732 1.16)"><path id="Path" class="st0" d="M173.4 38.5L142.6 0 77.1 38.5l65.5-21.2z"/><path id="Path_1_" fill="#0097cf" d="M173.4 44.7L142.6 24 82.1 43l60.5-10z"/><path id="Path_2_" class="st0" d="M16.9 74.7h11.9v1c.1 2-.2 3.9-.8 5.8-.5 1.6-1.4 3.1-2.5 4.4-2.5 3-6.3 4.6-10.3 4.6-3.9.1-7.7-1.6-10.4-4.4-5.7-6-5.7-15.5.2-21.5 2.8-2.9 6.7-4.5 10.7-4.4 2.2 0 4.4.5 6.4 1.4 2.1 1.1 4 2.7 5.5 4.5l-3.1 3c-2.4-3.2-5.3-4.8-8.7-4.8-2.9-.1-5.7 1.1-7.7 3.2S5 72.4 5 75.4c-.1 3.1 1.2 6 3.5 8 1.9 1.9 4.4 2.8 7 2.9 2.1 0 4.2-.8 5.8-2.2 1.6-1.3 2.7-3.2 2.9-5.3h-7.3v-4.1z"/><path id="Path_3_" class="st0" d="M46 60.7v29.1h-4.4V60.7z"/><path id="Shape" class="st0" d="M60.2 89.8V60.7h4.3c1.6-.1 3.1.1 4.6.5 1.1.3 2.1.8 2.9 1.5.8.8 1.5 1.7 1.9 2.8.5 1 .8 2.2.8 3.4 0 2-.9 3.9-2.4 5.3 1.5.5 2.8 1.5 3.6 2.8 2.1 3.2 1.7 7.5-1 10.3-.9.9-2 1.6-3.2 2-1.6.4-3.3.6-4.9.5h-6.6zm4.4-16.6H66c1.6 0 2.8-.3 3.6-1.1.8-.9 1.2-2 1.2-3.2.1-1.2-.3-2.3-1.2-3.1-.9-.8-2.1-1.2-3.3-1h-1.6l-.1 8.4zm0 12.4h2.7c2 0 3.4-.4 4.3-1.2.9-.8 1.5-2 1.4-3.2 0-1.2-.5-2.4-1.4-3.1-.9-.8-2.5-1.3-4.9-1.3h-2.2v8.8z"/><path id="Shape_1_" class="st0" d="M98.7 77.4l8.9 12.4h-5.3L94 77.9h-.8v11.9h-4.3V60.7H94c3.8 0 6.6.7 8.3 2.1 1.8 1.6 2.9 3.9 2.8 6.4.1 1.9-.6 3.8-1.8 5.3-1.1 1.5-2.8 2.5-4.6 2.9zm-5.5-3.3h1.4c4.2 0 6.2-1.6 6.2-4.8 0-3-2-4.5-6-4.5h-1.6v9.3z"/><path id="Shape_2_" class="st0" d="M134 82.7h-12.4l-3.2 7.1h-4.7L128 58.9l13.8 30.9H137l-3-7.1zm-1.8-4.1l-4.3-9.9-4.5 9.9h8.8z"/><path id="Path_4_" class="st0" d="M157 60.7v24.9h8.5v4.2h-12.9V60.7z"/><path id="Path_5_" class="st0" d="M183.5 64.9v24.9h-4.4V64.9h-6.7v-4.2h17.7v4.2z"/><path id="Shape_3_" class="st0" d="M215.1 82.7h-12.4l-3.2 7.1h-4.7l14.3-30.9 13.8 30.9h-4.7l-3.1-7.1zm-1.7-4.1l-4.3-9.9-4.5 9.9h8.8z"/><path id="Shape_4_" class="st0" d="M241 77.4l8.9 12.4h-5.3l-8.3-11.9h-.8v11.9h-4.4V60.7h5.1c3.8 0 6.6.7 8.3 2.1 1.8 1.6 2.9 3.9 2.8 6.4.1 1.9-.6 3.8-1.7 5.3-1.1 1.6-2.7 2.5-4.6 2.9zm-5.4-3.3h1.4c4.2 0 6.2-1.6 6.2-4.8 0-3-2-4.5-6.1-4.5h-1.6l.1 9.3z"/><g id="Group" transform="translate(60.036 107.335)"><path id="Path_6_" class="st0" d="M.2 13.7V.5h2.1v13.2z"/><path id="Path_7_" class="st0" d="M16.9 13.7l-6.1-9.3v9.3h-2V.5h1.8l6.1 9.2V.5h2v13.2z"/><path id="Shape_5_" class="st0" d="M33.3 12.5c-.8.8-2 1.2-3.4 1.2h-4.6V.5h4.6c1.4 0 2.5.4 3.4 1.2C34.7 3.1 34.6 5 34.6 7c0 1.9 0 4-1.3 5.5zm-1.4-9.3c-.6-.6-1.3-.9-2.3-.9h-2.4V12h2.4c.9 0 1.7-.3 2.3-.9.7-.8.7-2.2.7-4s0-3.2-.7-3.9z"/><path id="Path_8_" class="st0" d="M45.1 13.8c-2.7 0-4.7-1.9-4.7-4.6V.5h2v8.6c0 1.7 1.1 2.8 2.7 2.8s2.7-1.1 2.7-2.8V.5h2v8.8c.1 2.7-2 4.5-4.7 4.5z"/><path id="Path_9_" class="st0" d="M59.7 13.8c-2 0-3.4-.5-4.7-1.7l1.3-1.3c1 1 2 1.3 3.3 1.3 1.7 0 2.7-.8 2.7-2 0-.6-.2-1-.5-1.4-.3-.3-.7-.5-1.4-.6l-1.6-.2c-1.1-.2-1.9-.5-2.5-1-.6-.6-1-1.5-1-2.6C55.3 2 57 .4 59.7.4c1.7 0 2.9.5 4.1 1.5l-1.3 1.3c-.8-.8-1.7-1-2.9-1-1.6 0-2.4.9-2.4 2.1 0 .5.2.9.5 1.2s.9.5 1.5.6l1.5.2c1.2.2 1.9.5 2.5 1 .7.6 1.1 1.6 1.1 2.7.1 2.4-1.9 3.8-4.6 3.8z"/><path id="Path_10_" class="st0" d="M74.6 2.3v11.4h-2V2.3H69V.5h9.2v1.8z"/><path id="Shape_6_" class="st0" d="M90.9 13.7l-2.8-5.6h-2.5v5.6h-2V.5h5.1c2.5 0 4.1 1.6 4.1 3.9 0 1.9-1.2 3.1-2.6 3.5l3 5.9h-2.3v-.1zM88.6 2.3h-2.9v4.1h2.9c1.3 0 2.3-.8 2.3-2.1-.1-1.2-1-2-2.3-2z"/><path id="Path_11_" class="st0" d="M98.8 13.7V.5h2v13.2z"/><path id="Path_12_" class="st0" d="M107.4 13.7V.5h8.4v1.8h-6.4v3.8h5.5v1.8h-5.5v4h6.4v1.8z"/><path id="Path_13_" class="st0" d="M125.1 13.8c-2 0-3.4-.5-4.7-1.7l1.3-1.3c1 1 2 1.3 3.3 1.3 1.7 0 2.7-.8 2.7-2 0-.6-.2-1-.5-1.4-.3-.3-.7-.5-1.4-.6l-1.6-.2c-1.1-.2-1.9-.5-2.5-1-.6-.6-1-1.5-1-2.6 0-2.3 1.7-3.9 4.4-3.9 1.7 0 2.9.5 4.1 1.5L128 3.1c-.8-.8-1.7-1-2.9-1-1.6 0-2.4.9-2.4 2.1 0 .5.2.9.5 1.2.3.3.9.5 1.5.6l1.5.2c1.2.2 1.9.5 2.5 1 .7.6 1.1 1.6 1.1 2.7 0 2.5-1.9 3.9-4.7 3.9z"/></g></g></g></g></g></g></svg>