<svg xmlns="http://www.w3.org/2000/svg" viewBox="0 0 170 22"><path d="M11.768 10.868h8.1v.6c0 1.3-.2 2.6-.5 3.9-.4 1.1-.9 2.1-1.7 2.9-1.7 2-4.3 3.1-6.9 3.1-2.7 0-5.2-1-7-3-1.9-1.9-3-4.5-2.9-7.1-.1-2.7 1-5.3 3-7.2 1.9-1.9 4.5-3 7.3-3 1.5 0 3 .3 4.3.9 1.4.8 2.7 1.8 3.7 3l-2.1 2c-1.7-2-3.7-3.1-6-3.1-2-.1-3.9.7-5.2 2.1-1.4 1.5-2.2 3.4-2.1 5.3-.1 2.1.8 4 2.3 5.4 1.3 1.2 3 1.9 4.8 2 1.4 0 2.8-.5 3.9-1.5 1.1-.9 1.8-2.2 2-3.5h-4.9v-2.8h-.1zM31.468 1.468v19.6h-2.9v-19.6zM41.168 21.068v-19.6h2.9c1.1 0 2.1.1 3.1.3.7.2 1.4.5 2 1s1 1.2 1.3 1.9.5 1.5.5 2.3c0 1.4-.6 2.7-1.6 3.6 1 .3 1.9 1 2.5 1.9s.9 2 .9 3.1c0 1.5-.6 2.9-1.6 3.9-.6.6-1.4 1.1-2.2 1.4-1.1.3-2.2.4-3.3.4h-4.5v-.2zm2.9-11.2h.9c1.1 0 1.9-.2 2.4-.7.6-.6.8-1.4.8-2.1.1-.8-.2-1.5-.8-2.1-.6-.5-1.5-.8-2.3-.7h-1v5.6zm0 8.4h1.8c1.3 0 2.3-.3 2.9-.8.6-.5 1-1.3 1-2.2 0-.8-.3-1.6-1-2.1-.6-.6-1.7-.9-3.3-.9h-1.5l.1 6zM67.168 12.668l6.1 8.3h-3.6l-5.6-8h-.5v8h-2.9v-19.5h3.5c2.6 0 4.5.5 5.6 1.5 1.3 1.1 2 2.6 1.9 4.3 0 1.3-.4 2.5-1.2 3.6-.9.9-2 1.6-3.3 1.8zm-3.7-2.2h.9c2.8 0 4.2-1.1 4.2-3.2 0-2-1.4-3-4.1-3h-1.1l.1 6.2zM91.068 16.268h-8.4l-2.2 4.7h-3.1l9.7-20.7 9.3 20.8h-3.2l-2.1-4.8zm-1.2-2.7l-2.9-6.6-3 6.6h5.9zM106.668 1.468v16.8h5.8v2.8h-8.7v-19.6zM124.568 4.268v16.8h-2.9v-16.8h-4.6v-2.8h12v2.8zM146.068 16.268h-8.4l-2.2 4.7h-3.1l9.6-20.7 9.4 20.8h-3.2l-2.1-4.8zm-1.2-2.7l-2.9-6.6-3 6.6h5.9zM163.568 12.668l6.1 8.3h-3.6l-5.6-8h-.5v8h-3v-19.5h3.5c2.6 0 4.5.5 5.6 1.5 1.3 1.1 2 2.6 1.9 4.3 0 1.3-.4 2.6-1.2 3.6-.8.9-1.9 1.6-3.2 1.8zm-3.7-2.2h.9c2.8 0 4.2-1.1 4.2-3.2 0-2-1.4-3-4.1-3h-1.1v6.2h.1z"/></svg>