<svg version="1.1" id="Layer_1" xmlns="http://www.w3.org/2000/svg" x="0" y="0" viewBox="0 0 22 22" xml:space="preserve"><style>.st0{fill:#165fa1}</style><path class="st0" d="M21.9 21.1l-7.4-7.4c2.8-3.1 2.6-7.9-.3-10.9C12.7 1.3 10.7.5 8.6.5 6.5.5 4.5 1.3 3 2.8S.6 6.4.6 8.5s.8 4.1 2.3 5.6c1.5 1.5 3.6 2.3 5.6 2.3 1.9 0 3.8-.7 5.3-2l7.4 7.4.7-.7zM3.6 13.4c-1.3-1.3-2-3.1-2-4.9s.7-3.6 2-4.9c1.3-1.3 3.1-2 4.9-2s3.6.7 4.9 2c2.7 2.7 2.7 7.1 0 9.8-2.7 2.7-7.1 2.7-9.8 0z"/><path class="st0" d="M3 8.5h1C4 6 6 4 8.5 4V3C5.5 3 3 5.5 3 8.5z"/></svg>