<svg version="1.1" id="Layer_1" xmlns="http://www.w3.org/2000/svg" x="0" y="0" viewBox="0 0 24 24" xml:space="preserve"><style>.st1{fill:#165fa1}</style><g id="Page-1"><g id="Gibraltar-Icons" transform="translate(-784 -457)"><g id="Group" transform="translate(400 233)"><g id="Icon-and-Name-Copy-21" transform="translate(384 224)"><g id="Icon_x2F_XLS"><g id="Group-2"><path fill="#007dea" d="M0 0h24v6H0z" id="Rectangle"/><path class="st1" d="M24 24H0V5h24v19zM1 23h22V6H1v17z" id="Rectangle_1_"/><path class="st1" d="M0 5h24v1H0z" id="Rectangle_2_"/><path class="st1" d="M0 8h24v1H0z" id="Rectangle-Copy"/><path class="st1" d="M0 11h24v1H0z" id="Rectangle-Copy-2"/><path class="st1" d="M0 14h24v1H0z" id="Rectangle-Copy-3"/><path class="st1" d="M0 17h24v1H0z" id="Rectangle-Copy-4"/><path class="st1" d="M0 20h24v1H0z" id="Rectangle-Copy-5"/><path class="st1" d="M6 6h1v18H6z" id="Rectangle_3_"/><path class="st1" d="M11.5 6h1v18h-1z" id="Rectangle-Copy-6"/><path class="st1" d="M17 6h1v18h-1z" id="Rectangle-Copy-7"/></g></g></g></g></g></g></svg>