<svg version="1.1" id="Layer_1" xmlns="http://www.w3.org/2000/svg" x="0" y="0" viewBox="0 0 17 18" xml:space="preserve"><style>.st0{fill:#165fa1}.st1{fill:#007dea}</style><g id="Page-1"><g id="Gibraltar-Icons" transform="translate(-596 -359)"><g id="Group_1_" transform="translate(400 233)"><g id="Icon-and-Name-Copy-7" transform="translate(192 122)"><g id="Icon_x2F_Email"><g id="Group-2" transform="translate(4 4)"><path class="st0" d="M3.8 10h-2C1 10 .3 9.3.3 8.5v-7C.3.7 1 0 1.8 0h10c.8 0 1.5.7 1.5 1.5v5h-1v-5c0-.3-.2-.5-.5-.5h-10c-.2 0-.5.2-.5.5v7c0 .3.3.5.5.5h2v1z" id="Path"/><g id="Group-3" transform="translate(.5 1.5)"><path class="st1" d="M4.3 14.5c-.8 0-1.5-.7-1.5-1.5V6c0-.8.7-1.5 1.5-1.5h10c.8 0 1.5.7 1.5 1.5v6h-1V6c0-.3-.2-.5-.5-.5h-10c-.2 0-.5.2-.5.5v7c0 .3.2.5.5.5v1z" id="Shape"/><path class="st1" d="M9.3 9.6L3.1 6.4l.5-.8 5.7 2.8 5.8-2.8.5.8z" id="Path_1_"/><path class="st0" d="M6.3 3.6L.1.4l.5-.8 5.7 2.8 5.8-2.8.5.8z" id="Path-Copy"/><g id="Group" transform="translate(5 12.5)"><path class="st1" d="M.8 1h8v1h-8z" id="Line-5"/><path class="st1" d="M7.8 4v-5l3.3 2.5L7.8 4zm1-3v1l.7-.5-.7-.5z" id="Stroke-1"/></g></g></g></g></g></g></g></g></svg>