<svg xmlns="http://www.w3.org/2000/svg" viewBox="0 0 237.7 78.7"><linearGradient id="a" gradientUnits="userSpaceOnUse" x1="0" y1="39.35" x2="237.7" y2="39.35"><stop offset="0" stop-color="#4194d6"/><stop offset="1" stop-color="#b9dbff"/></linearGradient><path d="M23.5 36.4v-22c5.5 1.2 8.5 5.2 9 9.1h8.7c-.9-9.1-7.5-15.1-17.7-16V0h-4.9v7.5C7.4 8.2 0 15.1 0 24.8c0 12.4 9.6 15 18.6 17.4v22.5c-6.4-1-9.4-5.4-9.8-10.1H.1c.2 9.5 7.7 15.8 18.5 16.8v7.3h4.9v-7.3C35.7 70.6 42 62.1 42 53.7c0-12.5-9.6-15.1-18.5-17.3zM18.6 35c-5.8-1.8-10.3-4.2-10.3-10.6 0-6.4 4.2-9.6 10.3-10.2V35zm4.9 29.8V43.6c5.8 1.7 10.3 4.2 10.3 10.6 0 5.4-3.7 9.9-10.3 10.6zm41.6.6h31v6.8H52.7v-5.8C69.8 52.6 86 39.6 86 26.2c0-7.2-3.1-12.6-12-12.6-8.5 0-12.8 5.8-13.1 14H53c.5-13.9 9.3-21.1 21-21.1 12.2 0 20.2 7.2 20.2 19.3-.1 16.3-17.5 30.1-29.1 39.6zm83.6-16.1c0 12.6-7 22.7-22.2 22.7-13 0-20.8-7.3-22.4-17.8h8c1.5 6.8 6.8 10.9 14.5 10.9 9.9 0 14.3-6.7 14.3-15.6 0-9.3-4.8-14.7-14.2-14.7-6.6 0-11.3 3.4-13.5 8.5h-7.7V6.7h39.1v7.2H113v20.5c2.7-3.7 8.5-6.6 14.8-6.6 15.8 0 20.9 11.4 20.9 21.5zm79.9-42.4h9.1v64.9h-8.6V23.4l-21.6 48.5h-6l-21.7-48.6v48.6h-8.6v-65h9.2l24.1 53.8 24.1-53.8z" fill="url(#a)"/></svg>