<svg xmlns="http://www.w3.org/2000/svg" viewBox="0 0 147 68"><linearGradient id="a" gradientUnits="userSpaceOnUse" x1=".7" y1="36" x2="146.3" y2="36" gradientTransform="matrix(1 0 0 -1 0 70)"><stop offset="0" stop-color="#4194d6"/><stop offset="1" stop-color="#b9dbff"/></linearGradient><path d="M93.2 44.5c0 12.6-7 22.7-22.2 22.7-13 0-20.8-7.3-22.4-17.8h8c1.5 6.8 6.8 10.9 14.5 10.9 9.9 0 14.3-6.7 14.3-15.6 0-9.3-4.8-14.7-14.2-14.7-6.6 0-11.3 3.4-13.5 8.5H50V1.9h39v7.2H57.4v20.5c2.7-3.7 8.5-6.6 14.8-6.6 15.9 0 21 11.4 21 21.5zm33.9-13.8V11.1h-7.7v19.5h-19.1v6.9h19.1V57h7.7V37.6h19.2v-6.9h-19.2zm-85-10.6C42.1 8 34.2.8 22 .8 10.3.8 1.5 8 1 21.9h7.9c.4-8.2 4.7-14 13.1-14 8.8 0 12 5.4 12 12.6 0 13.3-16.2 26.3-33.3 40v5.8H44v-6.8H13C24.7 50 42.1 36.3 42.1 20.1z" fill="url(#a)"/></svg>