<svg xmlns="http://www.w3.org/2000/svg" viewBox="0 0 182 101"><linearGradient id="a" gradientUnits="userSpaceOnUse" x1=".3" y1="51.45" x2="181.7" y2="51.45" gradientTransform="matrix(1 0 0 -1 0 102)"><stop offset="0" stop-color="#4194d6"/><stop offset="1" stop-color="#b9dbff"/></linearGradient><path d="M71.2 19.2c-18 0-22.7 14.2-22.7 32.8 0 18.9 4.7 33.2 22.7 33.2 17.9 0 22.6-14.3 22.6-33.2 0-18.6-4.6-32.8-22.6-32.8zm0 58.6c-12.9 0-14.6-11.7-14.6-25.7 0-13.5 1.7-25.4 14.6-25.4C84 26.7 85.7 38.5 85.7 52c0 14.1-1.7 25.8-14.5 25.8zM43.4 67.7c0 10.1-7 18-20.6 18-12.3 0-21.5-6.6-22.5-19.2h7.9C9 73.4 14 78.7 22.7 78.7s12.9-5.1 12.9-11.8c0-9.2-6.4-12.7-18.1-12.7h-2.1v-6.8h2.2c10.9-.1 16.7-3.4 16.7-11 0-6.2-4.1-10.5-12-10.5-7.6 0-12.2 4.3-13 10.6h-8c.8-11.2 9.3-17.6 21.3-17.6 12.7 0 19.6 7.4 19.6 16.7 0 7.5-4.7 13.3-11.5 14.8v.4c7.6 2 12.7 7.5 12.7 16.9zM122.9.5h8.2l-24.7 100.1h-8.1L122.9.5zm58.8 62.2c0 12.6-7 22.7-22.2 22.7-13 0-20.8-7.3-22.4-17.8h8c1.5 6.8 6.8 10.9 14.5 10.9 9.9 0 14.3-6.7 14.3-15.6 0-9.3-4.8-14.7-14.2-14.7-6.6 0-11.3 3.4-13.5 8.5h-7.7V20.1h39.1v7.2H146v20.5c2.7-3.7 8.5-6.6 14.8-6.6 15.8 0 20.9 11.5 20.9 21.5z" fill="url(#a)"/></svg>