<svg xmlns="http://www.w3.org/2000/svg" viewBox="0 0 322 101"><linearGradient id="a" gradientUnits="userSpaceOnUse" x1=".1" y1="51.45" x2="321.9" y2="51.45" gradientTransform="matrix(1 0 0 -1 0 102)"><stop offset="0" stop-color="#4194d6"/><stop offset="1" stop-color="#b9dbff"/></linearGradient><path d="M41.5 20.8h-9.8L.1 64.5v6.2h33.3v14.5h8.1V70.7h9v-7.1h-9V20.8zm-7.8 42.8H9.5l24.2-34.3v34.3zm41.7-44.4c-18 0-22.7 14.2-22.7 32.8 0 18.9 4.7 33.2 22.7 33.2C93.3 85.2 98 70.9 98 52c0-18.6-4.7-32.8-22.6-32.8zm0 58.6c-12.9 0-14.6-11.7-14.6-25.7 0-13.5 1.7-25.4 14.6-25.4 12.8 0 14.5 11.9 14.5 25.4 0 14-1.7 25.7-14.5 25.7zM127.1.5h8.2l-24.7 100.1h-8.1L127.1.5zm24.5 77.2h31v6.8h-43.3v-5.8c17.1-13.8 33.3-26.7 33.3-40 0-7.2-3.1-12.6-12-12.6-8.5 0-12.8 5.8-13.1 14h-7.9c.5-13.9 9.3-21.1 21-21.1 12.2 0 20.2 7.2 20.2 19.3-.2 16.2-17.6 29.9-29.2 39.4zm57.1-58.5c-18 0-22.7 14.2-22.7 32.8 0 18.9 4.7 33.2 22.7 33.2 17.9 0 22.6-14.3 22.6-33.2 0-18.6-4.7-32.8-22.6-32.8zm0 58.6c-12.9 0-14.6-11.7-14.6-25.7 0-13.5 1.7-25.4 14.6-25.4 12.8 0 14.5 11.9 14.5 25.4 0 14-1.7 25.7-14.5 25.7zM260.4.5h8.2l-24.7 100.1h-8.1L260.4.5zm52.5 63.1V20.8h-9.8l-31.6 43.7v6.2h33.3v14.5h8.1V70.7h9v-7.1h-9zm-7.7 0H281l24.2-34.3v34.3z" fill="url(#a)"/></svg>