<svg xmlns="http://www.w3.org/2000/svg" viewBox="0 0 269 79"><linearGradient id="a" gradientUnits="userSpaceOnUse" x1=".1" y1="39.5" x2="268.9" y2="39.5"><stop offset="0" stop-color="#4194d6"/><stop offset="1" stop-color="#b9dbff"/></linearGradient><path d="M23.5 36.5v-22c5.5 1.2 8.5 5.2 9 9.1h8.7c-.9-9.1-7.5-15.1-17.7-16V.1h-4.9v7.5C7.4 8.3.1 15.2.1 25c0 12.4 9.6 15 18.6 17.4v22.5c-6.4-1-9.4-5.4-9.8-10.1H.1c.2 9.5 7.7 15.8 18.5 16.8v7.3h4.9v-7.3C35.7 70.8 42 62.2 42 53.9c.1-12.6-9.5-15.2-18.5-17.4zm-4.8-1.4c-5.8-1.8-10.3-4.2-10.3-10.6s4.2-9.6 10.3-10.2v20.8zm4.8 29.8V43.7c5.8 1.7 10.3 4.2 10.3 10.6.1 5.4-3.6 9.9-10.3 10.6zM51.6 7.8h16.9v65h-8.3V15.2h-8.6V7.8zm74.2 42.4c0 12.6-7 22.7-22.2 22.7-13 0-20.8-7.3-22.4-17.8h8C90.7 61.9 96 66 103.7 66c9.9 0 14.3-6.7 14.3-15.6 0-9.3-4.8-14.7-14.2-14.7-6.6 0-11.3 3.4-13.5 8.5h-7.7V7.6h39.1v7.2H90.1v20.5c2.7-3.7 8.5-6.6 14.8-6.6 15.8 0 20.9 11.5 20.9 21.5zm47.9-42.1h-9.8l-31.6 43.7V58h33.3v14.5h8.1V58.1h9V51h-9V8.1zm-7.8 42.8h-24.2l24.2-34.3v34.3zm93.9-43.1h9.1v64.9h-8.6V24.3l-21.6 48.5h-6L211 24.2v48.6h-8.6v-65h9.2l24.1 53.8 24.1-53.8z" fill="url(#a)"/></svg>