<svg version="1.1" id="Layer_1" xmlns="http://www.w3.org/2000/svg" x="0" y="0" viewBox="0 0 24 24" xml:space="preserve"><style>.st0{fill:#007dea}.st3{fill:#fff}</style><g id="Page-1"><g id="Gibraltar-Icons" transform="translate(-1360 -355)"><g id="Group_1_" transform="translate(400 233)"><g id="Icon-and-Name-Copy-11" transform="translate(960 122)"><g id="Icon_x2F_PDF"><g id="Group" transform="translate(3)"><path class="st0" d="M17.5 6H12V.5h1V5h4.5z" id="Path"/><path class="st0" d="M18 24H0V0h13.2L18 4.7V24zM1 23h16V5.1L12.8 1H1v22z" id="Shape"/></g><path fill="#165fa1" d="M0 8h24v10H0z" id="Rectangle"/><path class="st3" d="M6.7 13.2H6V15H4.8v-4.9h1.9c1.2 0 1.8.7 1.8 1.6 0 .8-.5 1.5-1.8 1.5zm-.1-.9c.5 0 .7-.2.7-.6s-.2-.7-.7-.7H6v1.2h.6zM14.6 12.5c0 1.5-1 2.5-2.6 2.5h-1.8v-4.9H12c1.6 0 2.6 1 2.6 2.4zM11.9 14c.9 0 1.4-.5 1.4-1.4s-.5-1.4-1.4-1.4h-.6V14h.6zM16.2 10.1h3.2v1h-2v1h1.5v.9h-1.5v2h-1.2v-4.9z"/></g></g></g></g></g></svg>