<svg version="1.1" id="Layer_1" xmlns="http://www.w3.org/2000/svg" x="0" y="0" viewBox="0 0 24 20" xml:space="preserve"><style>.st0{fill:#005fa6}.st4{fill:#fff}</style><g id="Page-1"><g id="Gibraltar-Icons" transform="translate(-400 -408)"><g id="Group" transform="translate(400 233)"><g id="Icon-and-Name-Copy-17" transform="translate(0 173)"><g id="Icon_x2F_Presentation"><path class="st0" d="M11.5 18.5h1V22h-1z" id="Line-6"/><path class="st0" d="M9 21h6v1H9z" id="Line-7"/><path d="M24 19H0V2h24v17zM1 18h22V3H1v15z" fill="#007dea" id="Rectangle"/><path fill="#165fa1" d="M0 8h24v10H0z" id="Rectangle_1_"/><path class="st4" d="M7 13.2h-.7V15H5.1v-4.9H7c1.2 0 1.8.7 1.8 1.6 0 .8-.5 1.5-1.8 1.5zm-.1-.9c.5 0 .7-.2.7-.6s-.2-.7-.7-.7h-.6v1.2h.6zM12.4 13.2h-.7V15h-1.2v-4.9h1.9c1.2 0 1.8.7 1.8 1.6 0 .8-.6 1.5-1.8 1.5zm-.1-.9c.5 0 .7-.2.7-.6s-.2-.7-.7-.7h-.7v1.2h.7zM15.5 10.1h3.8v1H18v4h-1.2v-4h-1.3v-1z"/></g></g></g></g></g></svg>