<svg version="1.1" id="Layer_1" xmlns="http://www.w3.org/2000/svg" x="0" y="0" viewBox="0 0 16 17" xml:space="preserve"><style>.st0{fill:#007dea}</style><g id="Page-1"><g id="Gibraltar-Icons" transform="translate(-596 -409)"><g id="Group_1_" transform="translate(400 233)"><g id="Icon-and-Name-Copy-16" transform="translate(192 173)"><g id="Icon_x2F_Printer"><g id="Group" transform="translate(4 3)"><path class="st0" d="M13 5.5h-1V1H4v4.5H3V0h10z" id="Path"/><g id="Oval"><circle cx="3.5" cy="8.5" r="1" fill="#fff"/><path class="st0" d="M3.5 10C2.7 10 2 9.3 2 8.5S2.7 7 3.5 7 5 7.7 5 8.5 4.3 10 3.5 10zm0-2c-.3 0-.5.2-.5.5s.2.5.5.5.5-.2.5-.5-.2-.5-.5-.5z"/></g><path d="M13.5 13.5H12v-1h1.5c.8 0 1.5-.7 1.5-1.5V7.5c0-.8-.7-1.5-1.5-1.5h-11C1.7 6 1 6.7 1 7.5V11c0 .8.7 1.5 1.5 1.5H4v1H2.5C1.1 13.5 0 12.4 0 11V7.5C0 6.1 1.1 5 2.5 5h11C14.9 5 16 6.1 16 7.5V11c0 1.4-1.1 2.5-2.5 2.5z" fill="#165fa1" id="Path_1_"/><path class="st0" d="M13 17H3v-6h10v6zm-9-1h8v-4H4v4z" id="Rectangle"/></g></g></g></g></g></g></svg>