<svg version="1.1" id="Layer_1" xmlns="http://www.w3.org/2000/svg" x="0" y="0" viewBox="0 0 16 16" xml:space="preserve"><style>.st1{fill:#007dea}</style><g id="Page-1"><g id="Gibraltar-Icons" transform="translate(-788 -410)"><g id="Group_1_" transform="translate(400 233)"><g id="Icon-and-Name-Copy-15" transform="translate(384 173)"><g id="Icon_x2F_RSS"><g id="Group-2" transform="translate(4 4)"><path d="M13.5 16h-11C1.1 16 0 14.9 0 13.5v-11C0 1.1 1.1 0 2.5 0h11C14.9 0 16 1.1 16 2.5v11c0 1.4-1.1 2.5-2.5 2.5zM2.5 1C1.7 1 1 1.7 1 2.5v11c0 .8.7 1.5 1.5 1.5h11c.8 0 1.5-.7 1.5-1.5v-11c0-.8-.7-1.5-1.5-1.5h-11z" fill="#165fa1" id="Rectangle"/><g id="Group" transform="translate(4 5)"><path class="st1" d="M1.5 7h-1c0-.3-.2-.5-.5-.5v-1c.8 0 1.5.7 1.5 1.5z" id="Path"/><path class="st1" d="M4.5 7h-1c0-1.9-1.6-3.5-3.5-3.5v-1c2.5 0 4.5 2 4.5 4.5z" id="Path_1_"/><path class="st1" d="M7.5 7h-1C6.5 3.4 3.6.5 0 .5v-1C4.1-.5 7.5 2.9 7.5 7z" id="Path_2_"/></g></g></g></g></g></g></g></svg>