<svg version="1.1" id="Layer_1" xmlns="http://www.w3.org/2000/svg" x="0" y="0" viewBox="0 0 18 24" xml:space="preserve"><style>.st1{fill:#007dea}</style><g id="Page-1"><g id="Gibraltar-Icons" transform="translate(-979 -406)"><g id="Group_1_" transform="translate(400 233)"><g id="Icon-and-Name-Copy-14" transform="translate(576 173)"><g id="Icon_x2F_RTF"><path d="M16.2 0H3v24h18V4.7L16.2 0zM16 1.2L19.9 5H16V1.2zM4 23V1h11v5h5v17H4z" fill="#165fa1"/><path class="st1" d="M6 8h11v1H6z" id="Rectangle"/><path class="st1" d="M6 10h7v1H6z" id="Rectangle-Copy"/><path class="st1" d="M6 12h12v1H6z" id="Rectangle-Copy-2"/><path class="st1" d="M6 14h9v1H6z" id="Rectangle-Copy-5"/><path class="st1" d="M6 16h10v1H6z" id="Rectangle-Copy-3"/><path class="st1" d="M6 18h9v1H6z" id="Rectangle-Copy-4"/></g></g></g></g></g></svg>